<?xml version="1.0" standalone="no"?>
<!DOCTYPE svg PUBLIC "-//W3C//DTD SVG 20010904//EN"
 "http://www.w3.org/TR/2001/REC-SVG-20010904/DTD/svg10.dtd">
<svg version="1.0" xmlns="http://www.w3.org/2000/svg"
 width="400.000000pt" height="400.000000pt" viewBox="0 0 400.000000 400.000000"
 preserveAspectRatio="xMidYMid meet">
<metadata>
Created by potrace 1.14, written by Peter Selinger 2001-2017
</metadata>
<g transform="translate(0.000000,400.000000) scale(0.100000,-0.100000)"
fill="#000000" stroke="none">
<path d="M1817 3994 c-2 -3 -24 -6 -48 -8 -24 -2 -60 -7 -79 -10 -95 -16 -142
-26 -151 -31 -4 -3 -24 -7 -45 -11 -22 -3 -43 -9 -49 -12 -5 -4 -16 -7 -24 -8
-27 -5 -146 -49 -152 -57 -3 -5 -9 -8 -13 -7 -12 2 -86 -23 -86 -30 0 -3 -17
-12 -37 -19 -20 -8 -70 -33 -111 -57 -40 -24 -78 -44 -83 -44 -5 0 -9 -4 -9
-10 0 -5 -6 -10 -14 -10 -8 0 -16 -3 -18 -7 -2 -5 -23 -21 -48 -38 -68 -44
-181 -138 -259 -216 -116 -115 -219 -247 -294 -373 -23 -39 -44 -73 -47 -76
-9 -8 -99 -204 -124 -272 -21 -54 -72 -229 -81 -278 -2 -8 -4 -15 -5 -15 -1 0
-3 -12 -5 -26 -2 -15 -6 -43 -9 -63 -18 -111 -21 -157 -20 -321 0 -163 5 -230
19 -305 3 -14 7 -41 10 -60 4 -19 10 -53 16 -75 5 -22 12 -51 15 -65 6 -30 57
-182 75 -225 7 -16 13 -32 14 -35 9 -30 69 -151 97 -197 11 -18 16 -33 11 -33
-4 0 -3 -4 2 -8 6 -4 32 -41 59 -82 27 -41 53 -77 58 -78 4 -2 8 -10 8 -18 0
-8 4 -14 8 -14 4 0 15 -12 24 -27 29 -49 174 -203 267 -283 35 -30 70 -61 77
-68 8 -7 14 -11 14 -7 0 4 7 -1 16 -10 24 -24 161 -115 174 -115 5 0 10 -4 10
-9 0 -5 10 -13 23 -17 12 -3 34 -15 49 -26 16 -11 28 -16 28 -11 0 4 4 3 8 -2
11 -16 302 -140 302 -129 0 2 12 -1 28 -7 30 -12 33 -13 117 -33 74 -18 111
-26 150 -31 17 -2 48 -7 70 -11 94 -16 501 -8 558 11 7 2 28 6 47 9 55 9 93
17 100 21 4 2 22 7 40 10 86 15 356 118 413 157 15 11 27 17 27 14 0 -9 190
112 266 169 197 148 395 368 505 563 18 31 35 59 38 62 4 3 17 30 31 60 14 30
27 57 30 60 11 10 113 280 105 280 -2 0 3 16 11 35 8 19 12 35 9 35 -3 0 -1 8
4 18 5 9 12 35 15 56 4 21 8 48 11 60 22 99 30 192 29 371 0 160 -6 259 -19
305 -2 8 -7 35 -10 60 -4 24 -8 48 -11 51 -2 4 -7 24 -10 45 -6 39 -61 212
-85 269 -7 17 -13 32 -14 35 -32 95 -127 264 -225 401 -22 31 -48 65 -58 77
-9 11 -31 37 -48 59 -42 50 -156 165 -206 206 -22 17 -49 40 -60 49 -56 48
-204 148 -218 148 -6 0 -10 4 -10 9 0 5 -15 14 -32 22 -18 7 -49 22 -68 34
-30 18 -79 40 -185 85 -51 21 -112 42 -134 47 -14 2 -28 6 -33 9 -4 3 -16 7
-25 9 -10 3 -54 13 -98 24 -44 11 -82 19 -85 19 -3 -1 -21 2 -40 6 -19 3 -51
9 -70 12 -44 7 -427 14 -433 8z"/>
</g>
</svg>
